<svg width="1200" height="900" viewBox="0 0 1200 900" fill="none" xmlns="http://www.w3.org/2000/svg">
  <rect width="1200" height="900" rx="42" fill="url(#bg)"/>
  <ellipse cx="826" cy="192" rx="200" ry="150" fill="#F7E7B7" fill-opacity="0.55"/>
  <ellipse cx="250" cy="754" rx="280" ry="152" fill="#EEF4E8"/>
  <path d="M0 664C154.716 596.853 280.967 592.133 473.455 646.63C681.834 705.638 859.545 665.022 1200 424V900H0V664Z" fill="url(#fabric)"/>
  <g filter="url(#shadow)">
    <rect x="426" y="218" width="360" height="424" rx="48" fill="url(#box)"/>
    <rect x="458" y="252" width="296" height="358" rx="36" stroke="white" stroke-opacity="0.28" stroke-width="2"/>
    <path d="M450 180C450 147.967 475.967 122 508 122H738C770.033 122 796 147.967 796 180V320L450 224.5V180Z" fill="#9CAF88"/>
  </g>
  <g filter="url(#soft)">
    <rect x="796" y="250" width="212" height="244" rx="38" fill="white" fill-opacity="0.82"/>
    <text x="830" y="320" fill="#8E8478" font-family="Fraunces, serif" font-size="18" letter-spacing="0.24em">SOFT NOTE</text>
    <text x="830" y="394" fill="#3B3328" font-family="Fraunces, serif" font-size="46">Bạn sắp</text>
    <text x="830" y="450" fill="#3B3328" font-family="Fraunces, serif" font-size="46">được</text>
    <text x="830" y="506" fill="#3B3328" font-family="Fraunces, serif" font-size="46">ôm lại.</text>
  </g>
  <g filter="url(#soft)">
    <rect x="160" y="268" width="150" height="170" rx="34" fill="white" fill-opacity="0.82"/>
    <rect x="194" y="302" width="82" height="100" rx="41" fill="url(#candle)"/>
  </g>
  <g filter="url(#soft)">
    <rect x="820" y="602" width="210" height="120" rx="60" fill="#FFF8E7" fill-opacity="0.92"/>
    <ellipse cx="925" cy="662" rx="72" ry="36" fill="#F7E7B7"/>
  </g>
  <circle cx="130" cy="138" r="7" fill="#E8C872"/>
  <circle cx="1002" cy="788" r="9" fill="#E8C872"/>
  <defs>
    <linearGradient id="bg" x1="76" y1="74" x2="1134" y2="838" gradientUnits="userSpaceOnUse">
      <stop stop-color="#FFF8E7"/>
      <stop offset="0.5" stop-color="#FFFBF4"/>
      <stop offset="1" stop-color="#EEF4E8"/>
    </linearGradient>
    <linearGradient id="fabric" x1="194" y1="610" x2="990" y2="856" gradientUnits="userSpaceOnUse">
      <stop stop-color="#FFF8E7"/>
      <stop offset="0.55" stop-color="#F7E7B7"/>
      <stop offset="1" stop-color="#D8C7A3"/>
    </linearGradient>
    <linearGradient id="box" x1="454" y1="226" x2="780" y2="636" gradientUnits="userSpaceOnUse">
      <stop stop-color="#A7BA92"/>
      <stop offset="1" stop-color="#5F6F52"/>
    </linearGradient>
    <linearGradient id="candle" x1="235" y1="302" x2="235" y2="402" gradientUnits="userSpaceOnUse">
      <stop stop-color="#FFF8E7"/>
      <stop offset="1" stop-color="#F7E7B7"/>
    </linearGradient>
    <filter id="shadow" x="362" y="80" width="498" height="638" filterUnits="userSpaceOnUse" color-interpolation-filters="sRGB">
      <feFlood flood-opacity="0" result="BackgroundImageFix"/>
      <feColorMatrix in="SourceAlpha" type="matrix" values="0 0 0 0 0 0 0 0 0 0 0 0 0 0 0 0 0 0 127 0" result="hardAlpha"/>
      <feOffset dy="18"/>
      <feGaussianBlur stdDeviation="32"/>
      <feColorMatrix type="matrix" values="0 0 0 0 0.231373 0 0 0 0 0.2 0 0 0 0 0.156863 0 0 0 0.22 0"/>
      <feBlend mode="normal" in2="BackgroundImageFix" result="effect1_dropShadow_0_1"/>
      <feBlend mode="normal" in="SourceGraphic" in2="effect1_dropShadow_0_1" result="shape"/>
    </filter>
    <filter id="soft" x="114" y="222" width="940" height="546" filterUnits="userSpaceOnUse" color-interpolation-filters="sRGB">
      <feFlood flood-opacity="0" result="BackgroundImageFix"/>
      <feColorMatrix in="SourceAlpha" type="matrix" values="0 0 0 0 0 0 0 0 0 0 0 0 0 0 0 0 0 0 127 0" result="hardAlpha"/>
      <feOffset dy="14"/>
      <feGaussianBlur stdDeviation="23"/>
      <feColorMatrix type="matrix" values="0 0 0 0 0.231373 0 0 0 0 0.2 0 0 0 0 0.156863 0 0 0 0.12 0"/>
      <feBlend mode="normal" in2="BackgroundImageFix" result="effect1_dropShadow_0_1"/>
      <feBlend mode="normal" in="SourceGraphic" in2="effect1_dropShadow_0_1" result="shape"/>
    </filter>
  </defs>
</svg>
