<svg width="1600" height="900" viewBox="0 0 1600 900" fill="none" xmlns="http://www.w3.org/2000/svg">
  <rect width="1600" height="900" rx="36" fill="#FAF6EE"/>
  <rect x="32" y="32" width="1536" height="836" rx="28" fill="url(#paint0_linear)" stroke="rgba(95,111,82,0.12)"/>
  <rect x="74" y="78" width="310" height="744" rx="28" fill="#FFFDF8"/>
  <rect x="110" y="124" width="166" height="26" rx="13" fill="#EEF4E8"/>
  <rect x="110" y="184" width="238" height="128" rx="26" fill="url(#paint1_linear)"/>
  <rect x="110" y="334" width="238" height="128" rx="26" fill="#F9F4E7"/>
  <rect x="110" y="484" width="238" height="128" rx="26" fill="#F4F7F0"/>
  <rect x="110" y="634" width="238" height="128" rx="26" fill="#FFF8E7"/>
  <rect x="430" y="78" width="1096" height="300" rx="34" fill="#FFFDF8"/>
  <rect x="476" y="124" width="224" height="28" rx="14" fill="#EEF4E8"/>
  <rect x="476" y="176" width="478" height="98" rx="26" fill="#F7E7B7" fill-opacity="0.48"/>
  <rect x="1002" y="176" width="476" height="156" rx="30" fill="url(#paint2_linear)"/>
  <rect x="430" y="410" width="706" height="412" rx="34" fill="#FFFDF8"/>
  <rect x="1170" y="410" width="356" height="412" rx="34" fill="#FFFDF8"/>
  <rect x="476" y="462" width="180" height="22" rx="11" fill="#EEF4E8"/>
  <rect x="476" y="516" width="612" height="236" rx="28" fill="url(#paint3_linear)"/>
  <path d="M540 696C602 616 646 590 716 610C772 626 802 704 870 712C934 720 986 658 1088 532" stroke="#5F6F52" stroke-width="12" stroke-linecap="round"/>
  <rect x="1212" y="458" width="132" height="132" rx="28" fill="#EEF4E8"/>
  <rect x="1362" y="458" width="118" height="18" rx="9" fill="#D8C7A3"/>
  <rect x="1362" y="494" width="102" height="18" rx="9" fill="#EEF4E8"/>
  <rect x="1212" y="632" width="268" height="138" rx="28" fill="url(#paint4_linear)"/>
  <defs>
    <linearGradient id="paint0_linear" x1="160" y1="68" x2="1444" y2="850" gradientUnits="userSpaceOnUse">
      <stop stop-color="#FFFFFF"/>
      <stop offset="1" stop-color="#F7F1E7"/>
    </linearGradient>
    <linearGradient id="paint1_linear" x1="110" y1="184" x2="348" y2="312" gradientUnits="userSpaceOnUse">
      <stop stop-color="#5F6F52"/>
      <stop offset="1" stop-color="#9CAF88"/>
    </linearGradient>
    <linearGradient id="paint2_linear" x1="1002" y1="176" x2="1478" y2="332" gradientUnits="userSpaceOnUse">
      <stop stop-color="#F7E7B7"/>
      <stop offset="1" stop-color="#D8C7A3"/>
    </linearGradient>
    <linearGradient id="paint3_linear" x1="476" y1="516" x2="1088" y2="752" gradientUnits="userSpaceOnUse">
      <stop stop-color="#FFF8E7"/>
      <stop offset="1" stop-color="#EEF4E8"/>
    </linearGradient>
    <linearGradient id="paint4_linear" x1="1212" y1="632" x2="1480" y2="770" gradientUnits="userSpaceOnUse">
      <stop stop-color="#5F6F52"/>
      <stop offset="1" stop-color="#9CAF88"/>
    </linearGradient>
  </defs>
</svg>
